<?xml version="1.0" encoding="UTF-8" standalone="no"?>
<!-- Created with Inkscape (http://www.inkscape.org/) -->
<svg
   xmlns:svg="http://www.w3.org/2000/svg"
   xmlns="http://www.w3.org/2000/svg"
   version="1.0"
   width="424.52371"
   height="46.553261"
   id="svg2">
  <defs
     id="defs4" />
  <g
     transform="translate(-104.881,-203.37127)"
     id="layer1">
    <g
       transform="matrix(1.25,0,0,-1.25,103.34846,250.21951)"
       id="g2432">
      <g
         transform="scale(0.1,0.1)"
         id="g2436"
         style="fill:#000000">
        <path
           d="M 432.11,133.07 C 425.67,111.29 417.75,86.04 386.56,57.3198 C 358.34,31.5798 311.8,2.35986 222.68,2.35986 C 98.4104,2.35986 12.2603,67.2197 12.2603,189.51 C 12.2603,321.21 117.22,374.68 227.63,374.68 C 267.73,374.68 373.07,365.28 419.5,281.45 L 332.1,253.87 C 322.69,268.72 294.86,307.24 227.03,307.24 C 147.81,307.24 103.36,255.35 103.36,188.51 C 103.36,112.26 163.78,71.6699 230.12,71.6699 C 305.87,71.6699 328.63,111.28 340.02,132.57 L 432.11,133.07"
           id="path2438"
           style="fill:#000000;fill-opacity:1;fill-rule:nonzero;stroke:none" />
        <path
           d="M 470.38,363.8 L 558.02,363.8 L 558.02,229.13 L 765.04,229.13 L 765.04,363.8 L 852.679,363.8 L 852.679,14.25 L 765.04,14.25 L 765.04,164.27 L 558.02,164.27 L 558.02,14.25 L 470.38,14.25 L 470.38,363.8"
           id="path2440"
           style="fill:#000000;fill-opacity:1;fill-rule:nonzero;stroke:none" />
        <path
           d="M 1063.17,363.8 L 1157.74,363.8 L 1326.57,14.25 L 1228.54,14.25 L 1193.88,90.5999 L 1023.65,90.5999 L 989.9,14.25 L 894.34,14.25 L 1063.17,363.8 z M 1118.63,256.36 C 1116.15,260.81 1114.17,265.76 1112.69,270.22 C 1111.2,274.68 1110.21,279.13 1109.72,284.08 C 1108.23,279.62 1107.24,275.66 1106.25,271.7 C 1104.27,267.24 1102.78,262.79 1100.8,258.33 L 1052.02,152.49 L 1164.87,152.49 L 1118.63,256.35"
           id="path2442"
           style="fill:#000000;fill-opacity:1;fill-rule:nonzero;stroke:none" />
        <path
           d="M 1371.63,363.8 L 1459.27,363.8 L 1459.27,78.6099 L 1635.81,78.6099 L 1635.81,14.25 L 1371.64,14.25 L 1371.64,363.8"
           id="path2444"
           style="fill:#000000;fill-opacity:1;fill-rule:nonzero;stroke:none" />
        <path
           d="M 1688.55,363.8 L 1814.8,363.8 L 1905.9,149.91 C 1915.31,127.14 1918.77,117.73 1923.72,97.9199 C 1927.18,112.77 1930.16,121.69 1940.06,145.95 L 2031.16,363.8 L 2156.42,363.8 L 2156.42,14.2498 L 2073.74,14.2498 L 2073.74,258.83 C 2073.74,269.229 2075.23,278.139 2077.21,291.51 C 2073.74,281.11 2072.26,277.15 2067.31,264.77 L 1962.84,14.2498 L 1883.13,14.2498 L 1778.66,259.83 C 1773.21,273.199 1772.22,277.159 1768.26,291.52 C 1769.75,276.67 1770.24,273.7 1771.23,260.33 L 1771.23,14.2598 L 1688.55,14.2598 L 1688.55,363.81"
           id="path2446"
           style="fill:#000000;fill-opacity:1;fill-rule:nonzero;stroke:none" />
        <path
           d="M 2237.47,363.8 L 2563.25,363.8 L 2563.25,300.92 L 2325.1,300.92 L 2325.1,222.2 L 2534.85,222.2 L 2534.85,160.31 L 2325.1,160.31 L 2325.1,76.6401 L 2573.15,76.6401 L 2573.15,14.2603 L 2237.47,14.2603 L 2237.47,363.81"
           id="path2448"
           style="fill:#000000;fill-opacity:1;fill-rule:nonzero;stroke:none" />
        <path
           d="M 3117.84,120.83 C 3138.37,79.0999 3188.6,67.0999 3236.12,67.9299 C 3257.41,68.2998 3324.17,72.9299 3323.43,115.51 C 3322.99,140.76 3298.63,146.27 3279.76,149.41 C 3265.35,152.13 3193.38,161.77 3176.99,164.449 C 3144.71,169.829 3063.26,183.759 3061.87,262.959 C 3061.57,280.289 3066.21,298.189 3074.87,312.709 C 3103.25,360.249 3167.39,373.749 3222.84,374.709 C 3273.83,375.599 3313.06,368.859 3349.55,349.689 C 3385.53,331.01 3401.32,305.53 3408.45,294.27 L 3325.65,272.03 C 3322.58,277.419 3315.43,290.169 3294.46,300.209 C 3271,311.189 3240.76,312.639 3223.93,312.349 C 3185.32,311.679 3145.85,303.56 3146.42,270.389 C 3146.82,247.62 3167.22,242.03 3193.56,236.55 C 3207.97,233.83 3279.46,223.19 3295.85,220.01 C 3336.57,213.3 3405.64,199.64 3406.98,122.92 C 3408.94,10.55 3283.04,4.17993 3231.98,3.47998 C 3174.55,2.69019 3085.09,10.8298 3038.5,98.6499 L 3117.84,120.83"
           id="path2450"
           style="fill:#000000;fill-opacity:1;fill-rule:nonzero;stroke:none" />
        <path
           d="M 2638.94,363.6 L 2879.56,363.6 C 2919.17,363.6 2955.31,360.14 2984.52,326.47 C 3002.35,305.67 3007.3,279.43 3007.3,259.13 C 3007.3,232.39 2998.39,200.71 2973.63,181.89 C 2954.82,167.53 2930.55,162.58 2916.69,160.11 L 3022.65,14.0505 L 2922.05,14.0505 L 2826.09,154.66 L 2726.57,154.66 L 2726.57,14.0505 L 2638.94,14.0505 L 2638.94,363.6 z M 2726.58,216.55 L 2866.2,216.55 C 2885.01,216.55 2918.68,219.03 2918.68,258.14 C 2918.68,265.07 2917.69,276.959 2911.75,285.37 C 2905.31,293.79 2896.9,302.199 2862.24,302.199 L 2726.58,302.199 L 2726.58,216.54"
           id="path2452"
           style="fill:#000000;fill-opacity:1;fill-rule:nonzero;stroke:none" />
      </g>
    </g>
  </g>
</svg>
