<?xml version="1.0" encoding="UTF-8" standalone="no"?>
<!-- Created with Inkscape (http://www.inkscape.org/) -->

<svg
   xmlns:svg="http://www.w3.org/2000/svg"
   xmlns="http://www.w3.org/2000/svg"
   xmlns:sodipodi="http://sodipodi.sourceforge.net/DTD/sodipodi-0.dtd"
   xmlns:inkscape="http://www.inkscape.org/namespaces/inkscape"
   id="svg2"
   version="1.1"
   inkscape:version="0.47 r22583"
   width="428.75"
   height="438.75"
   xml:space="preserve"
   sodipodi:docname="blomma4.svg"><defs /><sodipodi:namedview
     inkscape:zoom="0.55384615"
     inkscape:cx="381.97568"
     inkscape:cy="-32.248362"
     inkscape:window-width="1514"
     inkscape:window-height="1127"
     inkscape:window-x="0"
     inkscape:window-y="19"
     inkscape:window-maximized="0"
     inkscape:current-layer="svg2" /><path
     sodipodi:nodetypes="csssccssssssccsssscsccscsssscssssssssscsss"
     d="m 21.20025,141.07875 c 0.271161,1.0397 1.797321,0.42069 1.491125,-0.61 C 17.695821,123.65319 39.03404,29.913275 140.4275,24.875 c 85.66491,-4.256725 118.17863,76.9614 114.55875,136.27 -1.87262,30.6814 -24.50875,69.51125 -47.695,102.99125 -10.7725,10.19375 -20.675,21.54 -29.35375,33.835 11.00875,-23.60875 23.09659,-57.26748 25.56875,-97.77 4.30534,-70.53622 -24.29372,-111.198163 -73.53375,-108.75 -39.332846,1.955587 -51.759245,33.75306 -46.677125,41.20875 0.636339,0.93354 0.799318,0.92945 1.456125,-0.0712 2.892924,-4.40761 9.688917,-20.7229 44.0785,-22.4325 40.79254,-2.0279 73.18094,38.44631 69.25,102.835 -2.44406,40.03381 -16.3425,73.955 -27.38375,95.94125 -5.81625,9.4225 -10.945,19.28237 -15.12375,29.57137 2.57625,-38.51387 1.0537,-188.75937 -78.27025,-180.74512 -54.569425,5.51325 -89.979253,62.2533 -73.044925,84.82875 0.5109171,0.68111 1.7393885,-0.0861 1.48975,-0.60125 -10.8367865,-22.36114 31.752422,-78.22598 81.365675,-78.325 69.37475,-0.13847 69.47225,152.13762 66.59225,179.82262 -3.6125,9.67488 -6.50254,19.64233 -8.4075,29.895 -4.29754,23.1297 -10.2825,43.99863 -19.57375,62.90482 2.9075,-0.0464 8.00875,2.05371 11.52125,2.46631 11.02625,-18.7685 18.17956,-39.03298 22.26375,-60.7075 11.24831,-59.69411 44.425,-110.99125 89.295,-139.4725 22.905,-13.3675 80.36771,-28.12549 103.745,3.5425 22.24896,30.13951 -1.78798,74.20399 -25.11625,78.78987 -0.54173,0.10649 -0.50831,1.1956 0.24125,1.16263 26.47134,-1.1642 58.74662,-44.17365 34.42,-77.12875 -23.95463,-32.45115 -71.96875,-25.0825 -100.4575,-13.71875 60.37729,-31.03637 127.32949,-20.19891 151.9325,28.2775 25.54743,50.33725 -7.77929,90.30126 -41.67125,106.694 -33.36429,16.13751 -67.28366,9.17631 -79.38125,-15.8325 -11.76241,-24.31594 7.59486,-36.55674 10.29625,-38.44025 3.955,-2.75757 0.72485,-7.29405 -3.3625,-5.59 -2.23194,0.93051 -25.33261,18.31372 -11.76375,46.36863 13.22739,27.34884 49.65144,35.40056 86.24875,17.70262 36.04519,-17.43094 71.86271,-58.7001 45.29,-113.635 -26.34729,-54.46885 -101.14806,-58.10982 -156.3,-31.4325 -17.26806,8.35268 -34.14875,19.61875 -49.56375,33.19875 22.44125,-33.0325 43.49,-70.7975 45.4,-102.08875 7.29,-119.4263 -65.24279,-158.3696588 -123.8225,-155.7913 -77.097202,3.4033313 -128.8847977,82.355455 -113.7385,140.43 z"
     style="fill:#000000;fill-opacity:1;stroke:none"
     id="path3741" /></svg>