<?xml version="1.0" encoding="UTF-8" standalone="no"?>
<!-- Created with Inkscape (http://www.inkscape.org/) -->

<svg
   xmlns:svg="http://www.w3.org/2000/svg"
   xmlns="http://www.w3.org/2000/svg"
   xmlns:sodipodi="http://sodipodi.sourceforge.net/DTD/sodipodi-0.dtd"
   xmlns:inkscape="http://www.inkscape.org/namespaces/inkscape"
   id="svg3813"
   version="1.1"
   inkscape:version="0.47 r22583"
   width="201.75873"
   height="138.09625"
   xml:space="preserve"
   sodipodi:docname="ranka2.svg"><defs /><sodipodi:namedview
     inkscape:zoom="4.8632668"
     inkscape:cx="122.02014"
     inkscape:cy="61.786037"
     inkscape:window-width="1514"
     inkscape:window-height="1127"
     inkscape:window-x="0"
     inkscape:window-y="19"
     inkscape:window-maximized="0"
     inkscape:current-layer="svg3813" /><path
     d="m 111.76349,41.27 c -0.45375,0 -1.27875,-0.0875 -1.42125,-0.26875 -0.22375,-0.3025 -0.605,-0.7375 -0.87375,-1.05875 -0.3025,-0.3525 -0.625,-1.1475 -0.66875,-1.40625 -0.1125,0 -0.36625,0.44875 -0.48875,0.83875 -0.13125,0.44 -0.405,0.845 -0.995,1.47 -0.60625,0.65 -0.50375,1.3775 -0.88,2.03125 -0.39,0.66375 -0.63875,1.61625 -0.995,2.1875 -0.39625,0.56125 -0.60125,1.5925 -0.66,1.93875 -0.0538,0.36125 -0.57625,1.80125 -1.05875,2.25125 -0.3425,0.3275 -0.665,0.56125 -1.00125,0.56125 -0.15125,0 -0.3075,-0.05375 -0.46875,-0.15625 -0.5075,-0.35125 -1.50375,-1.20625 -1.875,-1.53375 -0.386251,-0.34625 -0.806251,-0.815 -1.030001,-1.15125 -0.25,-0.3525 -0.7525,-0.45 -1.1575,-0.7525 -0.43,-0.3125 -0.99125,-0.90875 -1.40625,-1.27875 -0.43,-0.38625 -0.865,-0.71875 -1.18625,-0.78125 -0.03,-0.01 -0.06375,-0.02 -0.09875,-0.035 13.887501,-8.4275 27.691251,-11.9575 39.658751,-12.095 19.0725,-0.21875 35.57125,8.80875 34.84375,28.81375 1.69875,-0.415 11.11236,-9.924997 1.435,-20.625 -6.36264,-7.034997 -17.53875,-11.00125 -30.9375,-11.00125 -18.6425,0 -41.532501,7.68625 -61.620001,25.50375 24.262501,-25.78625 56.171251,-38.125 80.717501,-38.125 12.34375,0 22.83599,3.110283 29.53125,9.21875 19.98974,18.237783 7.71916,39.804232 0.81,47.3725 -6.99334,7.660482 -14.6825,5.48375 -15.65375,6.22125 -0.56625,0.43 -0.66,1.03 -0.68875,1.62625 -0.02,0.415 0.78125,0.65375 2.03125,0.65375 3.525,0 10.90802,-1.919419 15.65375,-7.12375 6.43052,-7.051919 20.5629,-29.971691 -1.18625,-49.815 -8.17835,-7.461691 -20.66875,-12.30875 -35.59,-12.30875 -22.67125,0 -51.3925,11.5625 -78.906251,41.7225 -0.035,-0.385 -0.19125,-1.1425 -0.28375,-1.56625 -1.1475,-5.08375 -5.1275,-13.0275 -12.12375,-16.66125 0.12125,0.03 0.26375,0.08375 0.37625,0.1275 0.66375,0.23875 1.36625,0.34625 2.06,0.405 0.58625,0.04875 1.7875,-0.2825 2.095,-0.37625 0.33625,-0.0775 1.31375,-0.32625 1.59125,-0.37 0.3175,-0.05875 1.28,-0.29875 1.62625,-0.50375 0.34625,-0.21 1.065,-0.43375 1.31375,-0.7175 0.23375,-0.25875 0.595,-0.5175 1.00125,-0.68875 0.37,-0.15625 0.77625,-0.67375 1.40625,-1.1575 0.595,-0.46875 1.15125,-1.25 1.15125,-1.25 0,0 -0.805,-0.12125 -1.03,-0.3125 -0.25875,-0.2 -0.81,-0.33125 -1.37125,-0.43375 -0.5525,-0.0925 -1.33875,-0.1375 -1.84625,-0.24875 -0.47875,-0.1225 -0.9125,-0.44 -1.3275,-0.44 -0.1525,0.02 -0.37625,0.02875 -0.57625,0.02875 -0.3225,0 -0.68375,-0.04375 -1.00125,-0.0925 -0.47375,-0.0775 -1.7775,-0.35125 -2.37875,-0.5325 -0.595,-0.19 -0.64875,-0.6875 -0.59,-1.37125 0.04375,-0.66375 0.845,-1.96375 1.09375,-2.2225 0.23375,-0.2675 0.88875,-1.08875 1.09375,-1.7475 0.2,-0.645 0.79125,-1.40625 1.05875,-2.12375 0.27375,-0.69875 0.88,-1.10375 1.00125,-1.9675 0.1225,-0.86 0.28375,-1.30875 0.5325,-1.69 0.25375,-0.36625 0.46875,-0.9375 0.3275,-0.9375 -0.215,0.13125 -0.99125,0.44875 -1.45,0.37625 -0.61125,-0.0975 -0.9725,-0.04875 -1.42625,0 -0.3425,0.03375 -1.18625,-0.70875 -1.23,-1.22125 -0.05875,-0.5075 -0.69375,-1.19125 -0.9375,-1.5625 -0.24,-0.38 -0.19625,-1.235 -0.255,-1.71875 -0.05375,-0.4825 -0.88375,-2.14875 -0.995,-2.685 -0.1125,-0.5525 -0.3475,-1.1775 -0.81625,-1.93875 -0.45375,-0.7375 -0.82,-2.12375 -0.81,-2.56375 0.01375,-0.44875 -0.15125,-0.75125 -0.50375,-1.435 -0.35625,-0.68875 -0.95625,-2.16375 -0.995,-2.905 -0.04,-0.7325 -0.1375,-1.63625 -0.28375,-1.66125 -0.1275,0 -0.17625,0.93375 -0.22,1.03625 -0.0675,0.12125 -0.5175,1.7675 -0.59,2.1525 -0.06375,0.35625 -0.30875,1.05 -0.5675,1.25 -0.24375,0.19125 -1.24,1.82125 -1.46375,2.535 -0.225,0.7175 -0.50875,1.48375 -0.9725,1.9325 -0.47375,0.465 -0.88875,1.86125 -1.215,2.37875 -0.3125,0.5025 -0.99125,2.505 -1.25,3.6225 -0.25875,1.1325 -1.065,2.66125 -1.1925,3.4725 -0.13125,0.83 0.18125,3.51 0.5325,4.62375 0.35625,1.1325 0.46875,2.53375 0.50375,3.0325 0.05375,0.4825 -0.19625,1.37625 -0.37625,2.03125 -0.1275,0.4775 -0.5475,0.63375 -0.87375,0.59 -0.5475,-0.0775 -2.18375,-1.80125 -3.345,-3.46625 -1.1625,-1.665 -1.71875,-2.495 -2.87625,-3.4375 -1.1375,-0.9225 -2.305,-1.67 -3.53,-2.1875 -0.5125,-0.215 -0.97625,-0.28375 -1.3775,-0.28375 -0.58625,0 -1.04,0.17625 -1.31375,0.37625 -0.45875,0.37125 -1.03,0.86875 -1.5625,0.9375 -0.52625,0.05875 -1.57125,0.3025 -1.99625,0.3125 -0.455,0.015 -1.43125,-0.17625 -2.15875,-0.185 -0.78625,-0.015 -1.45,-0.48375 -2.1725,-0.5675 -0.62,-0.0725 -1.255,0.1375 -1.875,0.15625 -0.44,0.015 -2.285,-0.56125 -2.85625,-0.56125 -0.37125,-0.01375 -1.1775,-0.0925 -1.81125,-0.0925 -0.3325,0 -0.63,0.02 -0.78125,0.06375 -0.635,0.195 -1.295,0.0875 -1.93875,0.0775 -0.22,-0.005 -0.655,0.04 -0.845,0.2 -0.45375,0.38625 -1.04,0.22 -1.59125,0.22 -0.3425,0 -1.285,0.1125 -1.66125,0.28375 -0.41,0.185 -1.38625,0.4975 -1.82625,0.4975 -0.44875,0 -0.85375,0.3125 -1.17125,0.46875 -0.3025,0.17125 -0.87875,0.1425 -0.845,0.3475 0.015,0.0825 0.1375,0.0925 0.28375,0.0925 0.18,0 0.47875,-0.03875 0.7175,-0.06375 0.205,0 0.5325,0.05875 0.845,0.0925 0.3275,0.05875 0.7325,0.0925 1.215,0.0925 1.03625,0 1.00625,0.61625 1.91,0.7525 0.89875,0.13125 2.1975,0.56625 3.15375,0.7525 0.9475,0.185 1.665,0.81 2.15875,1.05875 0.46375,0.235 2.10375,1.64125 2.5,1.9675 0.38,0.3175 1.455,1.1875 2.1875,1.505 0.7175,0.3125 1.51875,1.1275 1.81125,1.3075 0.28375,0.18125 1.08375,1.03125 1.22125,1.40625 0.14625,0.39125 1.25375,1.44125 2.12375,2.0025 0.86375,0.56125 1.30375,1.1325 1.40625,1.47 0.0975,0.34625 0.16125,0.84875 0.24875,1.1575 0.1125,0.2925 0.19,1.29375 0.15625,1.5275 -0.05375,0.215 -0.3125,0.99125 0,1.12875 0.5275,-1.01625 1.19625,-1.1875 1.9675,-1.5625 0.79625,-0.38625 2.87625,-0.50875 4.12625,-0.625 1.235,-0.1175 2.42125,-0.48875 2.96875,-0.72375 0.55625,-0.23375 2.73875,-0.95125 3.14,-0.97625 0.61,-0.03875 1.08875,0.16125 1.39125,0.66375 0.37625,0.61625 -0.69375,1.295 -1.53375,1.69 -0.835,0.39125 -2.1375,0.78125 -2.93375,0.90875 -0.76625,0.12125 -1.5875,1.3075 -1.9675,1.90375 -0.39625,0.605 -1.61625,2.63625 -1.91,3.06125 -0.2925,0.43 -2.76875,4.00875 -3.09,4.4675 -0.3425,0.465 -1.55875,2.80375 -1.75375,3.18875 -0.205,0.40125 -0.75125,1.31375 -1.00125,1.47 -0.12625,0.0875 -0.33625,0.44 -0.56125,0.87375 -0.01,-0.05875 -0.02875,-0.1025 -0.02875,-0.15625 -0.025,-0.595 -0.1075,-1.29875 -0.22,-1.31375 -0.1175,0 -0.17625,0.7375 -0.22,0.81625 -0.05375,0.0975 -0.405,1.41625 -0.43375,1.71875 -0.06875,0.2775 -0.25875,0.85875 -0.46875,1.03 -0.08875,0.07375 -0.3125,0.38125 -0.5325,0.7525 -0.0975,0.12125 -0.16625,0.205 -0.19125,0.24875 -0.0087,0.02875 -0.01375,0.0775 0,0.0925 -0.195,0.35625 -0.36125,0.69875 -0.43375,0.9375 -0.18125,0.57625 -0.41,1.19125 -0.78125,1.5625 -0.38625,0.37125 -0.7425,1.48875 -1.00125,1.90375 -0.26875,0.40625 -0.82,2.03125 -1.03,2.94 -0.205,0.89875 -0.835,2.12875 -0.9375,2.78375 -0.1025,0.67375 0.14125,2.81625 0.43375,3.715 0.29375,0.91375 0.38625,2.04625 0.41125,2.43625 0.04375,0.39625 -0.15625,1.09 -0.3125,1.62625 -0.1025,0.38125 -0.29375,0.50375 -0.5675,0.50375 -0.0875,0 -0.17,-0.01 -0.2775,-0.035 -0.43,-0.1025 -1.63125,-1.41125 -2.56375,-2.74875 -0.9325,-1.3375 -1.38125,-2.02125 -2.315,-2.78375 -0.9125,-0.74625 -1.85,-1.3525 -2.84125,-1.77625 -0.41,-0.17125 -0.77125,-0.22 -1.09375,-0.22 -0.47375,0 -0.85,0.14125 -1.065,0.3125 -0.36625,0.2925 -0.82,0.7025 -1.25,0.74625 -0.42375,0.05 -1.28375,0.24 -1.62,0.255 -0.38625,0 -1.1775,-0.1475 -1.75375,-0.15625 -0.63,-0.015 -1.1525,-0.38125 -1.73375,-0.455 -0.5025,-0.0625 -1.005,0.1375 -1.49875,0.1425 -0.35125,0.0037 -1.845,-0.435 -2.3,-0.46875 -0.6975002,-0.05375 -1.4150002,-0.1475 -2.0887502,-0.035 -0.5325,0.08875 -1.045,0.07875 -1.5625,0.07875 -0.17625,0 -0.50875,0.04375 -0.66,0.17 -0.36625,0.3125 -0.845,0.1525 -1.27875,0.15625 -0.25875,0 -1.035,0.1225 -1.3425,0.255 -0.3125,0.16 -1.09875,0.37 -1.47,0.37 -0.36125,0 -0.68874995,0.245 -0.93749995,0.37625 -0.25875,0.1375 -0.71375,0.1225 -0.68875000326,0.28375 C 0.01098885,68.545 0.09348885,68.565 0.22098885,68.565 c 0.14625,0 0.395,-0.04375 0.57625,-0.06375 0.34624995,0 0.91249995,0.15625 1.67499995,0.15625 0.83,0 0.77625,0.48375 1.49875,0.59625 0.7325,0.1175 1.79625,0.47875 2.56375,0.625 0.77625,0.14625 1.3225,0.64875 1.71875,0.845 0.38,0.19 1.7225,1.3325 2.0312502,1.59125 0.3125,0.25875 1.19625,0.9425 1.77625,1.18625 0.58625,0.25875 1.1925,0.9475 1.44125,1.09375 0.215,0.14625 0.88875,0.81125 1.00125,1.12875 0.11125,0.3025 1.01,1.1375 1.71875,1.59125 0.6875,0.44 1.04375,0.87375 1.1225,1.1575 0.07875,0.2775 0.1225,0.68875 0.185,0.9375 0.09375,0.23375 0.1175,1.06875 0.09875,1.25 -0.05,0.18 -0.25875,0.805 0,0.9025 0.42375,-0.81 0.99125,-0.95625 1.62,-1.25 0.645,-0.3125 2.28125,-0.4 3.28125,-0.4975 1.00625,-0.0975 1.96875,-0.415 2.4075,-0.59625 0.44,-0.19 2.16375,-0.65375 2.5,-0.74625 0.5575,-0.15625 0.89875,0.19 1.1575,0.4975 0.38125,0.455 -0.54625,1.065 -1.22125,1.3775 -0.67875,0.3175 -1.7325,0.615 -2.3725,0.7175 -0.605,0.1025 -1.26,1.05 -1.5625,1.53375 -0.3275,0.4925 -1.3275,2.11875 -1.5625,2.465 -0.235,0.3375 -2.24125,3.2225 -2.5,3.59375 -0.26875,0.37125 -1.26,2.25125 -1.40625,2.56375 -0.17125,0.3175 -0.62,1.045 -0.81,1.1575 -0.215,0.14625 -0.655,1.24 -0.9725,1.7475 -0.32625,0.5075 -1.06375,1.31375 -1.1575,1.47 -0.01875,0.05375 0.005,0.0925 0.06375,0.0925 0.1125,0 0.3275,-0.0925 0.405,-0.185 0.1275,-0.14625 0.86,-0.26875 0.9375,-0.44 0.05875,-0.18 0.84,-0.43375 1.22125,-0.625 0.395,-0.19 1.01625,-0.19 1.3425,-0.405 0.3175,-0.225 1.22125,-0.58125 1.69,-0.7175 0.46375,-0.1325 1.05,-0.47375 1.435,-0.66 0.36625,-0.175 1.60125,-0.4875 2.2225,-0.59 0.595,-0.0925 1.7275,-0.645 2.1525,-0.66 0.36625,-0.02375 0.9325,-0.185 1.44125,-0.185 0.0825,0 0.165,-0.01 0.24875,0 0.05375,0.005 0.1025,0.02875 0.15625,0.02875 0.4825,0 0.9025,-0.2725 1.25,-0.37 0.38,-0.1025 0.99125,-0.07875 1.7825,-0.3125 0.75125,-0.23 1.215,-1.10375 1.37125,-1.285 0.14625,-0.19 0.45875,-1.06875 0.44,-1.37125 -0.015,-0.30875 0.43875,-1.465 0.5325,-1.71875 0.0875,-0.23 0.59,-0.88 0.9025,-0.9725 0.3175,0 0.88875,0.80625 1.22125,1.25 0.34625,0.45 0.7125,0.9475 1.05875,1.40625 0.3375,0.46375 1.1925,1.18625 1.97375,1.81125 0.77125,0.61125 1.1075,0.5375 1.46375,0.7525 0.36125,0.215 1.3775,0.96625 1.505,1.07875 0.03875,0 0.03375,-0.11625 -0.035,-0.45375 -0.0775,-0.44 -0.33625,-0.78125 -0.56125,-1.18625 -0.225,-0.39625 -0.3325,-0.5475 -0.46875,-1.31375 -0.14625,-0.77625 -0.205,-1.1475 -0.405,-1.40625 -0.205,-0.25875 -0.5175,-0.98625 -0.7175,-1.27875 -0.19625,-0.3175 -0.39625,-0.69375 -0.68875,-0.9375 -0.26875,-0.25 -0.79125,-0.80125 -1.12875,-1.31375 -0.32625,-0.48875 -1.39625,-1.32875 -1.77625,-1.69 -0.29875,-0.25875 -0.89875,-0.85875 -1.31375,-1.25 4.57,2.04625 10.02875,5.90375 11.655,12.8475 0.3275,1.40125 0.58625,2.485 0.81,3.31 -10.6875,24.41875 -8.68125,40.90875 -8.77875,41.25 l 2.0025,-2.1875 c 0.0925,-0.3325 -1.84625,-14.24375 7.7775,-36.25 0.7625,-0.3375 1.705,-0.835 2.94,-1.3775 5.795,-2.55375 12.705,-1.5425 17.30875,1.00125 -0.56125,-0.0725 -1.41,-0.15125 -1.81125,-0.22 -0.47875,-0.0675 -1.70375,-0.35625 -2.34375,-0.34125 -0.19,0.005 -0.47375,0.025 -0.68875,0.02875 -0.5025,0.01 -1,-0.0675 -1.49875,-0.0925 -0.25375,-0.01375 -0.5075,0.035 -0.74625,0.06375 -0.3625,0.04375 -1.1425,0.24875 -1.47,0.24875 -0.3275,0 -0.68875,0.18125 -1.3775,0.56125 -0.67375,0.37125 -0.84875,0.39125 -1.31375,0.46875 -0.44875,0.0687 -0.88375,0.0837 -1.27875,0.28375 -0.395,0.215 -0.5025,0.24875 -0.34125,0.28375 0.165,0.0337 1.38625,0.35125 1.77625,0.4975 0.39625,0.14625 0.5375,0.44 1.505,0.65375 0.9175,0.20125 2.02125,0.38625 2.6075,0.37625 0.585,-0.01 1.245,0.0487 1.79625,-0.0288 0.62,-0.0888 1.59125,-0.0787 1.7475,0.15625 0.18125,0.27375 -0.0625,1.09875 -0.185,1.31375 -0.13625,0.22375 -0.7525,1.28875 -1.00125,1.46375 -0.25875,0.17125 -0.76625,1.01625 -0.81,1.25 -0.05875,0.24 -0.43,1.11375 -0.1275,1.84625 0.3175,0.7525 0.7175,1.235 0.87375,1.59125 0.16125,0.37125 0.225,0.93375 0.625,1.31375 0.42,0.38125 0.66,1.08875 0.90875,1.44125 0.25875,0.34625 0.57125,1.5425 0.87375,2.06 0.3175,0.55125 0.81625,1.69 0.90875,2.095 0.1125,0.405 0.215,1.07375 0.405,1.5275 0.19,0.445 0.46875,1.3675 0.4975,1.75375 0.03,0.39 0.43,0.89375 0.5325,1.31375 0.1025,0.42375 0.37125,1.18125 0.28375,1.3425 -0.0925,0.18 0.2925,0.84 0.24875,1.03 -0.02875,0.16125 0.1075,0.42 0.185,0.42 0.08375,-0.15625 0.27875,-1.25 0.46875,-1.82625 0.19625,-0.56125 0.7425,-1.5875 0.72375,-1.84625 -0.035,-0.22375 0.25875,-1.04375 0.405,-1.37125 0.14625,-0.3175 1.00125,-2.28 1.1225,-2.72 0.1125,-0.44 1.09875,-3.78375 1.22125,-4.19 0.12125,-0.39 0.75625,-2.19625 0.9375,-2.74875 0.18,-0.55125 0.5025,-1.635 0.185,-2.1875 -0.3125,-0.55125 -0.75625,-1.58125 -0.9375,-2.30875 -0.175,-0.70375 -0.2825,-1.7825 0.26875,-1.8175 0.56625,-0.0388 0.835,0.27875 1.1375,0.59625 0.23,0.23875 0.87875,1.94375 1.00125,2.4075 0.13625,0.45875 0.47375,1.41125 1.03,2.25125 0.5475,0.825 1.5625,2.1775 1.71875,2.87 0.16125,0.665 0.38625,1.20125 0.06375,2.03125 0.24375,0 0.59625,-0.45875 0.68875,-0.59 0.12125,-0.1375 0.78125,-0.57625 1.03,-0.66 0.235,-0.0975 0.55625,-0.35625 0.81,-0.46875 0.1075,-0.0438 0.255,-0.0575 0.44,-0.0575 0.2975,0 0.7025,0.0625 1.18625,0.21375 0.625,0.215 1.52875,0.3475 2.03125,0.3475 0.27875,0 0.5425,-0.0787 0.81625,-0.0925 0.375,-0.02 0.83875,0.0725 0.995,0.12125 0.27375,0.1025 1.1925,0.1375 1.75375,0.44 0.56125,0.2925 1.62625,0.54625 2.03125,0.625 0.39,0.0775 2.11875,0.415 2.5,0.59 0.395,0.18125 1.1525,0.30875 1.7475,0.81625 0.59625,0.4925 1.5525,1.06375 2.095,1.5625 0.55125,0.4925 0.88875,0.17125 1.40625,0.81 0.5175,0.655 0.98625,0.9475 1.18625,1.25 0.16625,0.25375 0.36125,0.56125 0.50375,0.56125 0.13125,-0.0875 -0.16625,-0.43375 -0.22,-0.7175 -0.0588,-0.26875 -0.0588,-0.65375 -0.28375,-0.9375 -0.23375,-0.25875 -0.54625,-1.045 -0.625,-1.40625 -0.0875,-0.34625 -0.5275,-1.05875 -0.68875,-1.215 -0.175,-0.17125 -0.7225,-0.7475 -0.65375,-1.09375 0.05875,-0.3375 -0.27375,-0.64 -0.37625,-0.72375 -0.12125,-0.0775 -0.7175,-0.795 -0.845,-1.15125 -0.14625,-0.3525 -1.005,-1.26 -1.3075,-1.5975 -0.28375,-0.34625 -1.52375,-1.23 -1.7825,-1.47 -0.25875,-0.22375 -0.5525,-1.06875 -1.00125,-1.40625 -0.47375,-0.34625 -0.90875,-0.45375 -1.31375,-0.9375 -0.405,-0.46875 -1.045,-1.03 -1.25,-1.3075 -0.19,-0.27375 -0.55625,-0.98625 -0.78125,-1.34875 -0.23375,-0.37 -0.22,-0.98125 -0.22,-1.46375 -0.01875,-0.465 -0.35625,-1.20625 -1.3075,-1.71875 -0.9525,-0.51375 -2.0125,-0.88 -3.16,-1.12875 -0.55125,-0.1175 -1.02,-0.15625 -1.5275,-0.15625 -0.58125,0 -1.20125,0.06875 -2.06625,0.1275 -0.4975,0.03375 -1.02,0.02875 -1.49875,0.02875 -1.08875,0 -2.00625,-0.0925 -2.25125,-0.2775 -0.34625,-0.28375 -0.4875,-0.5325 -0.185,-0.9725 0.3275,-0.44875 0.7325,-1.025 1.05875,-1.25 0.3225,-0.22375 1.265,-0.89875 2.15875,-1.25 0.87375,-0.34625 2.695,-1.47375 3.15375,-1.9675 0.44,-0.49375 0.99625,-1.7725 1.5625,-2.5 0.57125,-0.7375 1.51375,-2.1625 1.66125,-2.6275 0.165,-0.45875 0.795,-1.45 0.83875,-1.9675 0.05875,-0.52745 0.39625,-1.0837 0.72375,-1.5912 0.32125,-0.49875 0.87375,-1.92875 0.87375,-2.1875 -0.01,-0.25875 0.3075,-0.78625 0.4975,-1.00125 0.21,-0.23375 0.9575,-1.3375 1.03,-1.435 l 0.51875,-0.68875 c -0.1475,0 -0.72875,0.33125 -1.1725,0.65375 -0.47875,0.3475 -1.69375,0.7425 -2.315,0.87375 -0.605,0.1275 -0.87375,0.1475 -1.15125,0.37625 -0.27375,0.225 -1.30375,0.7225 -2.0025,0.81625 -0.7075,0.0975 -1.23,0.26375 -1.62625,0.46875 -0.39,0.21 -1.88,0.53125 -2.21625,0.74625 -0.3275,0.215 -0.83,0.67375 -1.18625,0.7175 -0.3625,0.035 -1.12375,-0.03375 -1.47,0.19125 -0.1125,0.0775 -0.28375,0.12125 -0.46875,0.12125 -0.37125,0 -0.79625,-0.13625 -0.90875,-0.2775 -0.18,-0.24875 -0.47375,-0.60625 -0.68875,-0.87375 -0.23375,-0.27375 -0.4975,-0.90875 -0.54625,-1.11375 -0.0825,0 -0.28875,0.35625 -0.39125,0.67375 -0.0975,0.34625 -0.33625,0.69375 -0.81,1.18625 -0.48375,0.5275 -0.425,1.10875 -0.7175,1.62625 -0.3175,0.5275 -0.48875,1.28875 -0.78125,1.7475 -0.3175,0.455 -0.48875,1.285 -0.5325,1.5625 -0.03375,0.28375 -0.45875,1.44625 -0.845,1.8175 -0.3175,0.56625 -0.795,0.2675 -1.18625,0.34125 -0.405,-0.28375 -1.24,-0.98125 -1.53375,-1.25 -0.3025,-0.26875 -0.62875,-0.66875 -0.81,-0.9375 -0.2,-0.28375 -0.6,-0.34625 -0.9375,-0.59625 -0.3275,-0.25375 -0.78625,-0.7275 -1.1225,-1.03 -0.3525,-0.3025 -0.71375,-0.56625 -0.9725,-0.625 -0.23375,-0.05375 -0.68875,-0.4975 -0.68875,-0.4975 0,0 -0.21375,0.7225 -0.21375,1.3425 0.0088,0.63 -0.1025,1.1525 0,1.47 0.0875,0.33625 0.1075,0.68875 0.0575,0.96625 -0.04375,0.29375 0.205,0.865 0.255,1.18625 0.04375,0.3275 0.375,1.06 0.4975,1.285 0.1225,0.2 0.44,0.9275 0.56125,1.18625 0.1125,0.26875 0.66,1.38625 0.9375,1.62625 0.28375,0.23375 0.85,0.74625 1.22125,0.9375 0.0825,0.04875 0.16625,0.1175 0.24875,0.185 -5.9525,-2.35375 -12.84625,-1.07375 -18.06125,1.81125 6.1375,-13.6125 15.89875,-27.695 24.93625,-36.655 1.01125,-0.36625 2.77375,-1.1275 5.5325,-2.465 7.08,-3.4475 14.59875,-1.9875 21.470001,1.215 -0.70375,-0.0925 -1.723751,-0.195 -2.222501,-0.2775 -0.58625,-0.08375 -2.10875,-0.435 -2.905,-0.41125 -0.24375,0.005 -0.58125,0.035 -0.845,0.035 -0.55125,0 -1.3325,-0.08875 -1.64,-0.1125 -0.3175,-0.025 -0.87,0.04375 -1.1725,0.0775 -0.43875,0.05 -1.40625,0.3125 -1.81125,0.3125 -0.405,0 -0.86375,0.25 -1.71875,0.72375 -0.83,0.45875 -1.065,0.45875 -1.62625,0.56125 -0.56125,0.0875 -1.09875,0.0825 -1.59125,0.34125 -0.49875,0.25875 -0.61125,0.3125 -0.405,0.3475 0.2,0.04375 1.70375,0.44375 2.1875,0.625 0.4925,0.175 0.64375,0.54625 1.84,0.81 1.1675,0.25375 2.535,0.5125 3.26625,0.4975 0.72375,-0.01375 1.505,-0.03875 2.2025,-0.0575 0.3175,-0.015 0.7625,-0.06375 1.1575,-0.06375 0.5175,0 0.9475,0.06375 1.03,0.2775 0.15625,0.37125 -0.05875,1.32875 -0.22,1.5975 -0.165,0.2775 -0.94125,1.61625 -1.25,1.84 -0.3125,0.215 -0.94125,1.24125 -0.995,1.53375 -0.05875,0.2925 -0.50875,1.40125 -0.1275,2.315 0.38125,0.9325 0.86,1.5175 1.065,1.9675 0.19,0.45875 0.2725,1.1525 0.78125,1.62625 0.5025,0.4825 0.81,1.3475 1.1225,1.77625 0.3175,0.435 0.67875,1.94375 1.065,2.59875 0.39,0.67375 1.03,2.09375 1.15125,2.5925 0.1275,0.5225 0.24,1.3475 0.46875,1.90375 0.235,0.56625 0.625001,1.675 0.660001,2.15875 0.0337,0.48375 0.5125,1.10875 0.625,1.62625 0.12125,0.5175 0.4875,1.48375 0.37625,1.68375 -0.1125,0.215 0.35625,1.02625 0.3125,1.25 -0.05,0.2 0.11125,0.5475 0.21375,0.5475 0.0837,-0.2 0.3275,-1.5975 0.5675,-2.295 0.23375,-0.70875 0.9275,-1.9675 0.9025,-2.28 -0.0438,-0.29375 0.3225,-1.285 0.50375,-1.69 0.175,-0.395 1.225,-2.8375 1.37125,-3.37375 0.16125,-0.5525 1.3725,-4.72625 1.53375,-5.22 0.14625,-0.49375 0.9275,-2.74375 1.1575,-3.4375 0.21875,-0.66875 0.63875,-2.04125 0.24875,-2.72 -0.39625,-0.68375 -0.9425,-1.9425 -1.1575,-2.84125 -0.22,-0.87375 -0.27375,-2.295 0.41,-2.295 0.2975,0.01 0.7275,0.16125 0.9675,0.35625 0.15625,0.1275 0.2975,0.25375 0.37,0.405 0.19125,0.38125 1.065,2.3975 1.22125,2.96875 0.17125,0.57625 0.63,1.7775 1.31375,2.8125 0.68875,1.05 1.92375,2.73 2.12375,3.59375 0.19,0.835 0.5175,1.47 0.0775,2.515 0.28875,0 0.71875,-0.57125 0.83125,-0.7325 0.165,-0.17125 1.05875,-0.62 1.27875,-0.845 0.2925,-0.3025 1.045,-0.5225 1.59125,-0.625 0.36125,-0.0675 0.88,0.06375 1.47,0.24875 0.79125,0.26375 1.91,0.455 2.535,0.44 0.33125,-0.01 0.65875,-0.0775 0.995,-0.0925 0.46875,-0.02 1.02125,0.05875 1.22125,0.12125 0.3275,0.1275 1.48875,0.20625 2.1875,0.5675 0.69875,0.37 2.00625,0.6875 2.5,0.78125 0.49375,0.0975 2.64625,0.5025 3.125,0.7175 0.4975,0.22375 1.435,0.37125 2.1875,1.00125 0.7425,0.615 1.91875,1.36125 2.5925,1.9675 0.67875,0.61 1.09875,0.19 1.75375,1.00125 0.63875,0.805 1.23,1.18625 1.46375,1.5625 0.215,0.3125 0.46,0.6825 0.625,0.6825 0.17125,-0.0975 -0.18,-0.53625 -0.24875,-0.87375 -0.0675,-0.34625 -0.0488,-0.84 -0.34125,-1.18625 -0.27875,-0.3275 -0.70375,-1.29875 -0.81625,-1.7475 -0.11125,-0.42 -0.64875,-1.29875 -0.83875,-1.505 -0.225,-0.2 -0.89375,-0.9125 -0.81625,-1.3425 0.0687,-0.425 -0.36625,-0.805 -0.4975,-0.9025 -0.14625,-0.09375 -0.83,-0.99625 -1.00125,-1.44125 -0.17125,-0.44375 -1.28875,-1.5625 -1.655,-1.99625 -0.36125,-0.43 -1.895,-1.50875 -2.2225,-1.8175 -0.3125,-0.2775 -0.66375,-1.29875 -1.215,-1.71875 -0.58625,-0.43375 -1.1525,-0.58 -1.655,-1.18625 -0.48875,-0.59 -1.285,-1.255 -1.53375,-1.59125 -0.25875,-0.35125 -0.7175,-1.27 -1.00125,-1.71875 -0.2925,-0.45 -0.23375,-1.23125 -0.24875,-1.81125 -0.015,-0.58625 -0.42,-1.51875 -1.62625,-2.15875 -1.18125,-0.63 -2.495,-1.08375 -3.935,-1.3775 -0.69875,-0.14625 -1.265,-0.185 -1.91,-0.185 -0.7075,0 -1.49875,0.05375 -2.5575,0.1275 -0.625,0.04375 -1.28,0.0575 -1.875,0.0575 -1.3525,0 -2.48625,-0.10625 -2.78375,-0.34125 -0.43,-0.34625 -0.61,-0.65875 -0.22,-1.18625 0.39625,-0.56125 0.90375,-1.29375 1.31375,-1.5625 0.41,-0.27375 1.5725,-1.09375 2.685,-1.53375 1.09375,-0.425 3.38,-1.845 3.94125,-2.465 0.55125,-0.60625 1.225,-2.2025 1.93875,-3.125 0.7075,-0.90375 1.87,-2.67625 2.06,-3.2525 0.2,-0.58625 0.9625,-1.81625 1.03,-2.47125 0.0588,-0.64875 0.49375,-1.3375 0.90875,-1.9675 0.405,-0.62 1.05875,-2.4025 1.05875,-2.72 -0.009,-0.32125 0.40125,-0.95125 0.625,-1.215 0.25875,-0.3075 1.22625,-1.68 1.285,-1.81125 0.0337,-0.1025 0.76125,-0.7575 0.64,-0.845 -0.19125,0 -0.875,0.415 -1.42125,0.81 -0.60125,0.43 -2.14375,0.9375 -2.905,1.09375 -0.7575,0.14625 -1.09,0.22 -1.44125,0.50375 -0.3275,0.2775 -1.63,0.87875 -2.5,0.995 -0.87875,0.1175 -1.50375,0.30875 -1.99625,0.5675 -0.49875,0.25875 -2.335,0.67875 -2.755,0.9375 -0.415,0.2675 -1.015,0.785 -1.46375,0.83875 -0.44,0.05875 -1.68,0.05875 -2.115,0.3325 z m -52.856251,1.3425 c 0.4,0 1.1275,0.99625 1.53375,1.54875 0.42375,0.56125 0.84875,1.17125 1.27875,1.7475 0.43,0.57625 1.49375,1.475 2.47125,2.25125 0.96125,0.76625 1.36125,0.66875 1.81125,0.9375 0.44875,0.25875 1.73375,1.19125 1.88875,1.3275 0.05375,0 0.04,-0.15625 -0.04875,-0.58125 -0.11125,-0.53625 -0.415,-0.96125 -0.6825,-1.46375 -0.28375,-0.49875 -0.425,-0.66 -0.59625,-1.5975 -0.18125,-0.96625 -0.28375,-1.455 -0.5325,-1.7825 -0.25875,-0.3125 -0.66875,-1.22 -0.9025,-1.59125 -0.24,-0.38125 -0.48375,-0.81 -0.845,-1.1225 -0.3475,-0.29875 -0.98625,-1.03625 -1.40625,-1.66125 -0.41,-0.61 -1.71875,-1.65 -2.1875,-2.08875 -0.37625,-0.3325 -1.1425,-1.085 -1.655,-1.5625 5.67875,2.53875 12.475,7.33375 14.49625,15.96625 0.25375,1.09375 0.48375,2.01125 0.68875,2.8125 -12.64125,14.23375 -20.86375,27.6125 -26.18625,39.2825 -0.0925,-0.99125 -0.1025,-1.865 -0.36625,-2.75375 -0.5075,-1.71375 -3.0175,-8.59875 -9.57,-12.4025 0.0925,0.01875 0.2,0.02875 0.2775,0.06375 0.39625,0.175 1.21625,0.2975 1.5775,0.32625 0.46875,0.04 1.52875,-0.195 1.7675,-0.26875 0.28375,-0.0675 1.055,-0.2775 1.27875,-0.3125 0.25875,-0.04375 1.03625,-0.23375 1.31375,-0.405 0.28375,-0.18 0.86,-0.35625 1.065,-0.59 0.19,-0.205 0.4975,-0.42 0.81,-0.5675 0.3025,-0.12125 0.63,-0.5125 1.12875,-0.9025 0.4825,-0.38625 0.9025,-1.03 0.9025,-1.03 0,0 -0.62,-0.07375 -0.81,-0.22 -0.205,-0.17125 -0.645,-0.26375 -1.09375,-0.3475 -0.44,-0.0625 -1.08375,-0.11625 -1.49875,-0.21375 -0.38625,-0.1025 -0.7325,-0.37625 -1.065,-0.37625 -0.13625,0.015 -0.3225,0.02875 -0.4975,0.02875 -0.255,0 -0.51375,-0.02375 -0.7525,-0.06375 -0.395,-0.0625 -1.42625,-0.25375 -1.90375,-0.405 -0.47875,-0.15125 -0.5375,-0.57125 -0.50375,-1.1225 0.04375,-0.5325 0.67375,-1.5675 0.87375,-1.7825 0.19625,-0.215 0.72375,-0.88375 0.88,-1.40625 0.15625,-0.5225 0.65875,-1.1425 0.87375,-1.71875 0.22375,-0.56125 0.7075,-0.89875 0.81,-1.59125 0.0925,-0.68875 0.205,-1.055 0.405,-1.34875 0.21,-0.3075 0.39125,-0.78125 0.28375,-0.78125 -0.18125,0.09875 -0.79625,0.3125 -1.17125,0.3125 -0.225,0 -0.47375,0.045 -0.7325,0.045 -0.1325,0 -0.3225,-0.045 -0.425,-0.045 -0.27375,0 -0.9425,-0.55625 -0.98125,-0.96625 -0.04,-0.405 -0.5625,-0.9475 -0.7525,-1.25 -0.19,-0.3175 -0.17625,-0.98125 -0.22,-1.3775 -0.03375,-0.39 -0.7325,-1.7475 -0.81,-2.1875 -0.0925,-0.43375 -0.29375,-0.95625 -0.66,-1.5625 -0.36125,-0.6 -0.63375,-1.70875 -0.625,-2.06 0,-0.36125 -0.15625,-0.605 -0.43375,-1.1575 -0.04375,-0.0825 -0.07375,-0.2 -0.1275,-0.3125 0.205,-0.0875 0.41,-0.14125 0.56125,-0.22 0.47375,-0.23375 1.255,-0.24875 1.66125,-0.52625 0.395,-0.27375 1.5175,-0.71875 2.08875,-0.88 0.58625,-0.175 1.29875,-0.595 1.7825,-0.81 0.46375,-0.225 1.9725,-0.625 2.74875,-0.7525 0.7425,-0.11125 2.15875,-0.6975 2.69125,-0.78125 0.76125,-0.12125 1.51875,-0.2 2.28,-0.21375 0.605,-0.015 1.10875,-0.3525 1.53375,-0.46875 0.4825,-0.1275 1.25,-0.1175 2.21625,-0.41125 0.9425,-0.2775 1.52875,-1.3225 1.71875,-1.5625 0.18125,-0.22375 0.59125,-1.3325 0.56125,-1.71875 -0.02375,-0.37 0.5475,-1.80625 0.66,-2.12375 0.11125,-0.2775 0.7275,-1.09875 1.1225,-1.20125 z m 35.59625,2.13875 c -0.02,0.15625 -0.035,0.3175 -0.035,0.46875 0.025,0.79125 -0.12125,1.42125 0,1.81125 0.1125,0.42 0.1225,0.85 0.06375,1.1925 -0.06875,0.37 0.225,1.09375 0.28375,1.49875 0.05375,0.405 0.5075,1.29375 0.65375,1.5625 0.14625,0.25875 0.5325,1.1525 0.68875,1.47 0.14625,0.33625 0.84,1.7375 1.18625,2.03125 0.34625,0.2925 1.03,0.94625 1.49875,1.18625 0.0975,0.05375 0.19125,0.14125 0.28375,0.22 -6.50875,-2.52 -13.93625,-1.705 -20.27375,0.94625 -0.47875,0.225 -0.79625,0.415 -1.48,0.865 0.5275,-0.48875 1.08,-0.97625 1.62625,-1.47 5.1175,-4.62875 10.3125,-8.545 15.50375,-11.7825 z"
     style="fill:#000000;fill-opacity:1;fill-rule:nonzero;stroke:none"
     id="ranka2"
     sodipodi:nodetypes="csscssscssssssssscscsscssssssssscccsssssssscssssssssssssscsssssssssssssssssssssssssssssssssssssssssssssssssssssssssscsssssssssssscssscssssssssssssssssssssssssssssssssssssssssssssssscssssssssssssssssssssssssssssssscssssssssssssscsccccccssssssssssssssssssssssssssssscssssssssssssscssssssssssssssscssssssssssssssssssssssssssssssccssssssssssscscccsccssssscsssssssscccccsssssssssssssssssssssssssssssscsssssssssssssscsssssssssssssscssssssssssssssssssssssssssssssscsssssssccsssssssssssssccccscsssssssscssssssssssssscsssssssssscssssssssssssccsssssssscccsc" /></svg>